# xmcd
#
# Track frame offsets: 
#        150
#        14205
#        25670
#        38030
#        50493
#        68410
#        82863
#        96540
#        112973
#        127290
#        142243
#        156305
#        173778
#        187665
#        199220
#        213955
#        236040
#        254040
#        268630
#        283500
#        297575
#        313930
#
# Disc length: 4386 seconds
#
# Revision: 7
# Processed by: cddbd v1.5.2PL0 Copyright (c) Steve Scherf et al.
# Submitted via: ExactAudioCopyFreeDBPlugin 1.0
#
DISCID=53112016
DTITLE=Various Artist - The Complete Stax-Volt Singles, 1959-1975
DYEAR=1993
DGENRE=Soul
TTITLE0=The Staple Singers - Heavy Makes You Happy (Sha-Na-Boom Boom)
TTITLE1=The Staple Singers - Who Took the Merry Out of Christmas
TTITLE2=Shack - Too Many Lovers
TTITLE3=The Emotions - Black Christmas
TTITLE4=Isaac Hayes - The Mistletoe and Me
TTITLE5=Barbara Lewis - Ask the Lonely
TTITLE6=Johnnie Taylor - Jody's Got Your Girl and Gone
TTITLE7=The Soul Children - Finish Me Off
TTITLE8=Eddie Floyd - Oh How it Rained
TTITLE9=Isaac Hayes - The Look of Love
TTITLE10=Ernie Hines - Electrified Love
TTITLE11=Booker T. and The M.G.s - Melting Pot
TTITLE12=Barbara Lewis - That's the Way I Like It (I Like it That Way)
TTITLE13=Jean Knight - Mr. Big Stuff
TTITLE14=The Emotions - You Make Me Want to Love You
TTITLE15=Margie Joseph - Stop in the Name of Love
TTITLE16=Johnnie Taylor - I Don't Wanna Lose You
TTITLE17=The Temprees - (Girl) I Love You
TTITLE18=Rufus Thomas - The World is Round
TTITLE19=William Bell - A Penny for Your Thoughts
TTITLE20=Isaac Hayes - Never Can Say Goodbye
TTITLE21=The Nightingales - I Don't Want to Be Like My Daddy
EXTD=
EXTT0=The Staple Singers
EXTT1=The Staple Singers
EXTT2=Shack
EXTT3=The Emotions
EXTT4=Isaac Hayes
EXTT5=Barbara Lewis
EXTT6=Johnnie Taylor
EXTT7=The Soul Children
EXTT8=Eddie Floyd
EXTT9=Isaac Hayes
EXTT10=Ernie Hines
EXTT11=Booker T and the MG's
EXTT12=Barbara Lewis
EXTT13=Jean Knight
EXTT14=The Emotions
EXTT15=Margie Joseph
EXTT16=Johnnie Taylor
EXTT17=The Temprees
EXTT18=Rufus Thomas
EXTT19=William Bell
EXTT20=Isaac Hayes
EXTT21=The Nightengales
PLAYORDER=
